<mxfile host="app.diagrams.net" modified="2023-11-17T19:12:44.258Z" agent="Mozilla/5.0 (Windows NT 10.0; Win64; x64) AppleWebKit/537.36 (KHTML, like Gecko) Chrome/119.0.0.0 Safari/537.36 Edg/119.0.0.0" etag="i6hGbTl1G0qiMDdlb0zt" version="22.1.3" type="device">
  <diagram name="Page-1" id="7wK5zoWXar_1J-GbtPrm">
    <mxGraphModel dx="3999" dy="902" grid="1" gridSize="10" guides="1" tooltips="1" connect="1" arrows="1" fold="1" page="1" pageScale="1" pageWidth="2339" pageHeight="3300" math="0" shadow="0">
      <root>
        <mxCell id="0" />
        <mxCell id="1" parent="0" />
        <mxCell id="ZuQJrdhla16gMjKC7xCY-117" value="&lt;b&gt;Airline&lt;/b&gt;" style="whiteSpace=wrap;html=1;align=center;" parent="1" vertex="1">
          <mxGeometry x="30" y="290" width="100" height="40" as="geometry" />
        </mxCell>
        <mxCell id="ZuQJrdhla16gMjKC7xCY-118" value="&lt;b&gt;identification&lt;br&gt;number&lt;/b&gt;" style="ellipse;whiteSpace=wrap;html=1;align=center;fontStyle=4;" parent="1" vertex="1">
          <mxGeometry x="-20" y="120" width="100" height="40" as="geometry" />
        </mxCell>
        <mxCell id="ZuQJrdhla16gMjKC7xCY-120" value="&lt;b&gt;contact&lt;br&gt;person&amp;nbsp;&lt;/b&gt;" style="ellipse;whiteSpace=wrap;html=1;align=center;" parent="1" vertex="1">
          <mxGeometry x="-90" y="160" width="100" height="40" as="geometry" />
        </mxCell>
        <mxCell id="ZuQJrdhla16gMjKC7xCY-121" value="&lt;b&gt;address&lt;/b&gt;" style="ellipse;whiteSpace=wrap;html=1;align=center;" parent="1" vertex="1">
          <mxGeometry x="130" y="130" width="100" height="40" as="geometry" />
        </mxCell>
        <mxCell id="ZuQJrdhla16gMjKC7xCY-122" value="&lt;b&gt;name&lt;/b&gt;" style="ellipse;whiteSpace=wrap;html=1;align=center;" parent="1" vertex="1">
          <mxGeometry x="50" y="160" width="100" height="40" as="geometry" />
        </mxCell>
        <mxCell id="ZuQJrdhla16gMjKC7xCY-123" value="&lt;b&gt;phone numbers&lt;/b&gt;" style="ellipse;shape=doubleEllipse;margin=3;whiteSpace=wrap;html=1;align=center;" parent="1" vertex="1">
          <mxGeometry x="200" y="170" width="100" height="40" as="geometry" />
        </mxCell>
        <mxCell id="ZuQJrdhla16gMjKC7xCY-124" value="" style="endArrow=none;html=1;rounded=0;exitX=0.5;exitY=1;exitDx=0;exitDy=0;entryX=0;entryY=0;entryDx=0;entryDy=0;" parent="1" source="ZuQJrdhla16gMjKC7xCY-120" target="ZuQJrdhla16gMjKC7xCY-117" edge="1">
          <mxGeometry relative="1" as="geometry">
            <mxPoint x="350" y="330" as="sourcePoint" />
            <mxPoint x="510" y="330" as="targetPoint" />
          </mxGeometry>
        </mxCell>
        <mxCell id="ZuQJrdhla16gMjKC7xCY-125" value="" style="endArrow=none;html=1;rounded=0;exitX=0.284;exitY=1.024;exitDx=0;exitDy=0;exitPerimeter=0;entryX=1;entryY=0;entryDx=0;entryDy=0;" parent="1" source="ZuQJrdhla16gMjKC7xCY-123" target="ZuQJrdhla16gMjKC7xCY-117" edge="1">
          <mxGeometry relative="1" as="geometry">
            <mxPoint x="350" y="330" as="sourcePoint" />
            <mxPoint x="510" y="330" as="targetPoint" />
          </mxGeometry>
        </mxCell>
        <mxCell id="ZuQJrdhla16gMjKC7xCY-126" value="" style="endArrow=none;html=1;rounded=0;exitX=0.5;exitY=1;exitDx=0;exitDy=0;entryX=0.75;entryY=0;entryDx=0;entryDy=0;" parent="1" source="ZuQJrdhla16gMjKC7xCY-121" target="ZuQJrdhla16gMjKC7xCY-117" edge="1">
          <mxGeometry relative="1" as="geometry">
            <mxPoint x="350" y="330" as="sourcePoint" />
            <mxPoint x="510" y="330" as="targetPoint" />
          </mxGeometry>
        </mxCell>
        <mxCell id="ZuQJrdhla16gMjKC7xCY-127" value="" style="endArrow=none;html=1;rounded=0;exitX=0.5;exitY=1;exitDx=0;exitDy=0;entryX=0.25;entryY=0;entryDx=0;entryDy=0;" parent="1" source="ZuQJrdhla16gMjKC7xCY-118" target="ZuQJrdhla16gMjKC7xCY-117" edge="1">
          <mxGeometry relative="1" as="geometry">
            <mxPoint x="350" y="330" as="sourcePoint" />
            <mxPoint x="510" y="330" as="targetPoint" />
          </mxGeometry>
        </mxCell>
        <mxCell id="ZuQJrdhla16gMjKC7xCY-128" value="" style="endArrow=none;html=1;rounded=0;exitX=0.5;exitY=0;exitDx=0;exitDy=0;entryX=0.5;entryY=1;entryDx=0;entryDy=0;" parent="1" source="ZuQJrdhla16gMjKC7xCY-117" target="ZuQJrdhla16gMjKC7xCY-122" edge="1">
          <mxGeometry relative="1" as="geometry">
            <mxPoint x="350" y="330" as="sourcePoint" />
            <mxPoint x="510" y="330" as="targetPoint" />
          </mxGeometry>
        </mxCell>
        <mxCell id="ZuQJrdhla16gMjKC7xCY-130" value="&lt;b&gt;Employee&lt;/b&gt;" style="whiteSpace=wrap;html=1;align=center;" parent="1" vertex="1">
          <mxGeometry x="585" y="290" width="100" height="40" as="geometry" />
        </mxCell>
        <mxCell id="ZuQJrdhla16gMjKC7xCY-131" value="&lt;b&gt;identification&lt;br&gt;number&lt;/b&gt;" style="ellipse;whiteSpace=wrap;html=1;align=center;fontStyle=4;" parent="1" vertex="1">
          <mxGeometry x="425" y="200" width="100" height="40" as="geometry" />
        </mxCell>
        <mxCell id="ZuQJrdhla16gMjKC7xCY-133" value="&lt;b&gt;address&lt;/b&gt;" style="ellipse;whiteSpace=wrap;html=1;align=center;" parent="1" vertex="1">
          <mxGeometry x="755" y="348.36" width="100" height="40" as="geometry" />
        </mxCell>
        <mxCell id="ZuQJrdhla16gMjKC7xCY-134" value="&lt;b&gt;name&lt;/b&gt;" style="ellipse;whiteSpace=wrap;html=1;align=center;" parent="1" vertex="1">
          <mxGeometry x="535" y="180" width="100" height="40" as="geometry" />
        </mxCell>
        <mxCell id="ZuQJrdhla16gMjKC7xCY-137" value="" style="endArrow=none;html=1;rounded=0;exitX=0;exitY=1;exitDx=0;exitDy=0;entryX=1;entryY=0;entryDx=0;entryDy=0;" parent="1" target="ZuQJrdhla16gMjKC7xCY-130" edge="1" source="ZuQJrdhla16gMjKC7xCY-141">
          <mxGeometry relative="1" as="geometry">
            <mxPoint x="783.4000000000001" y="240.96000000000004" as="sourcePoint" />
            <mxPoint x="1065" y="340" as="targetPoint" />
          </mxGeometry>
        </mxCell>
        <mxCell id="ZuQJrdhla16gMjKC7xCY-138" value="" style="endArrow=none;html=1;rounded=0;exitX=0;exitY=0;exitDx=0;exitDy=0;entryX=1;entryY=1;entryDx=0;entryDy=0;" parent="1" source="ZuQJrdhla16gMjKC7xCY-133" target="ZuQJrdhla16gMjKC7xCY-130" edge="1">
          <mxGeometry relative="1" as="geometry">
            <mxPoint x="1015" y="518.36" as="sourcePoint" />
            <mxPoint x="780.9000000000001" y="470" as="targetPoint" />
          </mxGeometry>
        </mxCell>
        <mxCell id="ZuQJrdhla16gMjKC7xCY-139" value="" style="endArrow=none;html=1;rounded=0;exitX=0.5;exitY=1;exitDx=0;exitDy=0;entryX=0.25;entryY=0;entryDx=0;entryDy=0;" parent="1" source="ZuQJrdhla16gMjKC7xCY-131" target="ZuQJrdhla16gMjKC7xCY-130" edge="1">
          <mxGeometry relative="1" as="geometry">
            <mxPoint x="905" y="340" as="sourcePoint" />
            <mxPoint x="1065" y="340" as="targetPoint" />
          </mxGeometry>
        </mxCell>
        <mxCell id="ZuQJrdhla16gMjKC7xCY-140" value="" style="endArrow=none;html=1;rounded=0;exitX=0.5;exitY=0;exitDx=0;exitDy=0;entryX=0.5;entryY=1;entryDx=0;entryDy=0;" parent="1" source="ZuQJrdhla16gMjKC7xCY-130" target="ZuQJrdhla16gMjKC7xCY-134" edge="1">
          <mxGeometry relative="1" as="geometry">
            <mxPoint x="905" y="340" as="sourcePoint" />
            <mxPoint x="1065" y="340" as="targetPoint" />
          </mxGeometry>
        </mxCell>
        <mxCell id="ZuQJrdhla16gMjKC7xCY-141" value="&lt;b&gt;birthday&lt;/b&gt;" style="ellipse;whiteSpace=wrap;html=1;align=center;" parent="1" vertex="1">
          <mxGeometry x="745" y="200" width="100" height="40" as="geometry" />
        </mxCell>
        <mxCell id="ZuQJrdhla16gMjKC7xCY-142" value="&lt;b&gt;year&lt;/b&gt;" style="ellipse;whiteSpace=wrap;html=1;align=center;" parent="1" vertex="1">
          <mxGeometry x="895" y="190" width="100" height="40" as="geometry" />
        </mxCell>
        <mxCell id="ZuQJrdhla16gMjKC7xCY-143" value="&lt;b&gt;month&lt;/b&gt;" style="ellipse;whiteSpace=wrap;html=1;align=center;" parent="1" vertex="1">
          <mxGeometry x="845" y="140" width="100" height="40" as="geometry" />
        </mxCell>
        <mxCell id="ZuQJrdhla16gMjKC7xCY-144" value="&lt;b&gt;day&lt;/b&gt;" style="ellipse;whiteSpace=wrap;html=1;align=center;" parent="1" vertex="1">
          <mxGeometry x="745" y="120" width="100" height="40" as="geometry" />
        </mxCell>
        <mxCell id="ZuQJrdhla16gMjKC7xCY-145" value="" style="endArrow=none;html=1;rounded=0;exitX=0;exitY=0.5;exitDx=0;exitDy=0;entryX=1;entryY=0.5;entryDx=0;entryDy=0;" parent="1" source="ZuQJrdhla16gMjKC7xCY-142" target="ZuQJrdhla16gMjKC7xCY-141" edge="1">
          <mxGeometry relative="1" as="geometry">
            <mxPoint x="555" y="350" as="sourcePoint" />
            <mxPoint x="715" y="350" as="targetPoint" />
          </mxGeometry>
        </mxCell>
        <mxCell id="ZuQJrdhla16gMjKC7xCY-146" value="" style="endArrow=none;html=1;rounded=0;entryX=1;entryY=0;entryDx=0;entryDy=0;exitX=0;exitY=1;exitDx=0;exitDy=0;" parent="1" target="ZuQJrdhla16gMjKC7xCY-141" edge="1" source="ZuQJrdhla16gMjKC7xCY-143">
          <mxGeometry relative="1" as="geometry">
            <mxPoint x="865" y="150" as="sourcePoint" />
            <mxPoint x="715" y="350" as="targetPoint" />
          </mxGeometry>
        </mxCell>
        <mxCell id="ZuQJrdhla16gMjKC7xCY-147" value="" style="endArrow=none;html=1;rounded=0;exitX=0.412;exitY=1.024;exitDx=0;exitDy=0;exitPerimeter=0;entryX=0.5;entryY=0;entryDx=0;entryDy=0;" parent="1" source="ZuQJrdhla16gMjKC7xCY-144" target="ZuQJrdhla16gMjKC7xCY-141" edge="1">
          <mxGeometry relative="1" as="geometry">
            <mxPoint x="555" y="350" as="sourcePoint" />
            <mxPoint x="715" y="350" as="targetPoint" />
          </mxGeometry>
        </mxCell>
        <mxCell id="ZuQJrdhla16gMjKC7xCY-148" value="&lt;b&gt;position&lt;/b&gt;" style="ellipse;whiteSpace=wrap;html=1;align=center;" parent="1" vertex="1">
          <mxGeometry x="785" y="250" width="100" height="40" as="geometry" />
        </mxCell>
        <mxCell id="ZuQJrdhla16gMjKC7xCY-149" value="&lt;b&gt;gender&lt;/b&gt;" style="ellipse;whiteSpace=wrap;html=1;align=center;" parent="1" vertex="1">
          <mxGeometry x="775" y="300" width="100" height="40" as="geometry" />
        </mxCell>
        <mxCell id="ZuQJrdhla16gMjKC7xCY-150" value="&lt;b&gt;qualifications&lt;/b&gt;" style="ellipse;shape=doubleEllipse;margin=3;whiteSpace=wrap;html=1;align=center;" parent="1" vertex="1">
          <mxGeometry x="645" y="170" width="100" height="40" as="geometry" />
        </mxCell>
        <mxCell id="ZuQJrdhla16gMjKC7xCY-152" value="" style="endArrow=none;html=1;rounded=0;entryX=0.5;entryY=1;entryDx=0;entryDy=0;exitX=0.75;exitY=0;exitDx=0;exitDy=0;" parent="1" source="ZuQJrdhla16gMjKC7xCY-130" target="ZuQJrdhla16gMjKC7xCY-150" edge="1">
          <mxGeometry relative="1" as="geometry">
            <mxPoint x="635" y="410" as="sourcePoint" />
            <mxPoint x="435" y="460" as="targetPoint" />
          </mxGeometry>
        </mxCell>
        <mxCell id="ZuQJrdhla16gMjKC7xCY-153" value="" style="endArrow=none;html=1;rounded=0;entryX=0;entryY=0.5;entryDx=0;entryDy=0;exitX=1;exitY=0.75;exitDx=0;exitDy=0;" parent="1" source="ZuQJrdhla16gMjKC7xCY-130" target="ZuQJrdhla16gMjKC7xCY-149" edge="1">
          <mxGeometry relative="1" as="geometry">
            <mxPoint x="305" y="380" as="sourcePoint" />
            <mxPoint x="465" y="380" as="targetPoint" />
          </mxGeometry>
        </mxCell>
        <mxCell id="ZuQJrdhla16gMjKC7xCY-154" value="" style="endArrow=none;html=1;rounded=0;exitX=0;exitY=0.5;exitDx=0;exitDy=0;entryX=1;entryY=0.5;entryDx=0;entryDy=0;" parent="1" source="ZuQJrdhla16gMjKC7xCY-148" target="ZuQJrdhla16gMjKC7xCY-130" edge="1">
          <mxGeometry relative="1" as="geometry">
            <mxPoint x="305" y="380" as="sourcePoint" />
            <mxPoint x="465" y="380" as="targetPoint" />
          </mxGeometry>
        </mxCell>
        <mxCell id="ZuQJrdhla16gMjKC7xCY-156" value="&lt;b&gt;Aircraft&lt;/b&gt;" style="whiteSpace=wrap;html=1;align=center;" parent="1" vertex="1">
          <mxGeometry x="30" y="640" width="100" height="40" as="geometry" />
        </mxCell>
        <mxCell id="ZuQJrdhla16gMjKC7xCY-157" value="&lt;b&gt;identification&lt;br&gt;number&lt;/b&gt;" style="ellipse;whiteSpace=wrap;html=1;align=center;fontStyle=4;" parent="1" vertex="1">
          <mxGeometry x="-45" y="750" width="100" height="40" as="geometry" />
        </mxCell>
        <mxCell id="ZuQJrdhla16gMjKC7xCY-159" value="&lt;b&gt;model&lt;/b&gt;" style="ellipse;whiteSpace=wrap;html=1;align=center;" parent="1" vertex="1">
          <mxGeometry x="105" y="740" width="100" height="40" as="geometry" />
        </mxCell>
        <mxCell id="ZuQJrdhla16gMjKC7xCY-160" value="&lt;b&gt;capacity&lt;/b&gt;" style="ellipse;whiteSpace=wrap;html=1;align=center;" parent="1" vertex="1">
          <mxGeometry x="35" y="790" width="100" height="40" as="geometry" />
        </mxCell>
        <mxCell id="ZuQJrdhla16gMjKC7xCY-164" value="" style="endArrow=none;html=1;rounded=0;exitX=0;exitY=0;exitDx=0;exitDy=0;entryX=0.75;entryY=1;entryDx=0;entryDy=0;" parent="1" source="ZuQJrdhla16gMjKC7xCY-159" target="ZuQJrdhla16gMjKC7xCY-156" edge="1">
          <mxGeometry relative="1" as="geometry">
            <mxPoint x="350" y="680" as="sourcePoint" />
            <mxPoint x="510" y="680" as="targetPoint" />
          </mxGeometry>
        </mxCell>
        <mxCell id="ZuQJrdhla16gMjKC7xCY-165" value="" style="endArrow=none;html=1;rounded=0;exitX=0.5;exitY=0;exitDx=0;exitDy=0;entryX=0.25;entryY=1;entryDx=0;entryDy=0;" parent="1" source="ZuQJrdhla16gMjKC7xCY-157" target="ZuQJrdhla16gMjKC7xCY-156" edge="1">
          <mxGeometry relative="1" as="geometry">
            <mxPoint x="350" y="680" as="sourcePoint" />
            <mxPoint x="510" y="680" as="targetPoint" />
          </mxGeometry>
        </mxCell>
        <mxCell id="ZuQJrdhla16gMjKC7xCY-166" value="" style="endArrow=none;html=1;rounded=0;exitX=0.5;exitY=1;exitDx=0;exitDy=0;entryX=0.5;entryY=0;entryDx=0;entryDy=0;" parent="1" source="ZuQJrdhla16gMjKC7xCY-156" target="ZuQJrdhla16gMjKC7xCY-160" edge="1">
          <mxGeometry relative="1" as="geometry">
            <mxPoint x="350" y="680" as="sourcePoint" />
            <mxPoint x="510" y="680" as="targetPoint" />
          </mxGeometry>
        </mxCell>
        <mxCell id="ZuQJrdhla16gMjKC7xCY-167" value="&lt;b&gt;Owns&lt;/b&gt;" style="shape=rhombus;perimeter=rhombusPerimeter;whiteSpace=wrap;html=1;align=center;" parent="1" vertex="1">
          <mxGeometry x="20" y="430" width="120" height="60" as="geometry" />
        </mxCell>
        <mxCell id="ZuQJrdhla16gMjKC7xCY-168" value="" style="shape=link;html=1;rounded=0;entryX=0.5;entryY=0;entryDx=0;entryDy=0;exitX=0.5;exitY=1;exitDx=0;exitDy=0;" parent="1" source="ZuQJrdhla16gMjKC7xCY-167" target="ZuQJrdhla16gMjKC7xCY-156" edge="1">
          <mxGeometry relative="1" as="geometry">
            <mxPoint x="90" y="430" as="sourcePoint" />
            <mxPoint x="250" y="430" as="targetPoint" />
          </mxGeometry>
        </mxCell>
        <mxCell id="ZuQJrdhla16gMjKC7xCY-170" value="" style="shape=link;html=1;rounded=0;exitX=0.5;exitY=0;exitDx=0;exitDy=0;" parent="1" source="ZuQJrdhla16gMjKC7xCY-167" target="ZuQJrdhla16gMjKC7xCY-117" edge="1">
          <mxGeometry relative="1" as="geometry">
            <mxPoint x="40" y="410" as="sourcePoint" />
            <mxPoint x="90" y="450" as="targetPoint" />
          </mxGeometry>
        </mxCell>
        <mxCell id="ZuQJrdhla16gMjKC7xCY-171" value="&lt;b&gt;1&lt;/b&gt;" style="resizable=0;html=1;whiteSpace=wrap;align=right;verticalAlign=bottom;" parent="ZuQJrdhla16gMjKC7xCY-170" connectable="0" vertex="1">
          <mxGeometry x="1" relative="1" as="geometry">
            <mxPoint x="-10" y="30" as="offset" />
          </mxGeometry>
        </mxCell>
        <mxCell id="ZuQJrdhla16gMjKC7xCY-173" value="&lt;b&gt;Works&lt;/b&gt;" style="shape=rhombus;perimeter=rhombusPerimeter;whiteSpace=wrap;html=1;align=center;" parent="1" vertex="1">
          <mxGeometry x="290" y="280" width="120" height="60" as="geometry" />
        </mxCell>
        <mxCell id="ZuQJrdhla16gMjKC7xCY-174" value="&lt;b&gt;Route&lt;/b&gt;" style="whiteSpace=wrap;html=1;align=center;" parent="1" vertex="1">
          <mxGeometry x="595" y="640" width="100" height="40" as="geometry" />
        </mxCell>
        <mxCell id="ZuQJrdhla16gMjKC7xCY-175" value="&lt;b&gt;destination&lt;/b&gt;" style="ellipse;whiteSpace=wrap;html=1;align=center;" parent="1" vertex="1">
          <mxGeometry x="785" y="590" width="100" height="40" as="geometry" />
        </mxCell>
        <mxCell id="ZuQJrdhla16gMjKC7xCY-176" value="&lt;b&gt;origin&lt;/b&gt;" style="ellipse;whiteSpace=wrap;html=1;align=center;" parent="1" vertex="1">
          <mxGeometry x="785" y="690" width="100" height="40" as="geometry" />
        </mxCell>
        <mxCell id="ZuQJrdhla16gMjKC7xCY-177" value="" style="endArrow=none;html=1;rounded=0;exitX=0;exitY=0.5;exitDx=0;exitDy=0;entryX=1;entryY=0;entryDx=0;entryDy=0;" parent="1" source="ZuQJrdhla16gMjKC7xCY-175" target="ZuQJrdhla16gMjKC7xCY-174" edge="1">
          <mxGeometry relative="1" as="geometry">
            <mxPoint x="915" y="670" as="sourcePoint" />
            <mxPoint x="1075" y="670" as="targetPoint" />
          </mxGeometry>
        </mxCell>
        <mxCell id="ZuQJrdhla16gMjKC7xCY-178" value="" style="endArrow=none;html=1;rounded=0;exitX=0;exitY=0.5;exitDx=0;exitDy=0;entryX=1;entryY=0.5;entryDx=0;entryDy=0;" parent="1" source="ZuQJrdhla16gMjKC7xCY-181" target="ZuQJrdhla16gMjKC7xCY-174" edge="1">
          <mxGeometry relative="1" as="geometry">
            <mxPoint x="885" y="780" as="sourcePoint" />
            <mxPoint x="945" y="720" as="targetPoint" />
          </mxGeometry>
        </mxCell>
        <mxCell id="ZuQJrdhla16gMjKC7xCY-179" value="" style="endArrow=none;html=1;rounded=0;entryX=0;entryY=0.5;entryDx=0;entryDy=0;exitX=1;exitY=1;exitDx=0;exitDy=0;" parent="1" source="ZuQJrdhla16gMjKC7xCY-174" target="ZuQJrdhla16gMjKC7xCY-176" edge="1">
          <mxGeometry relative="1" as="geometry">
            <mxPoint x="735" y="710" as="sourcePoint" />
            <mxPoint x="1075" y="670" as="targetPoint" />
          </mxGeometry>
        </mxCell>
        <mxCell id="ZuQJrdhla16gMjKC7xCY-181" value="&lt;b&gt;identification&lt;br&gt;number&lt;/b&gt;" style="ellipse;whiteSpace=wrap;html=1;align=center;fontStyle=4;" parent="1" vertex="1">
          <mxGeometry x="815" y="640" width="100" height="40" as="geometry" />
        </mxCell>
        <mxCell id="ZuQJrdhla16gMjKC7xCY-182" value="&lt;b&gt;classification&lt;/b&gt;" style="ellipse;whiteSpace=wrap;html=1;align=center;" parent="1" vertex="1">
          <mxGeometry x="645" y="760" width="100" height="40" as="geometry" />
        </mxCell>
        <mxCell id="ZuQJrdhla16gMjKC7xCY-183" value="&lt;b&gt;distance&lt;/b&gt;" style="ellipse;whiteSpace=wrap;html=1;align=center;" parent="1" vertex="1">
          <mxGeometry x="745" y="740" width="100" height="40" as="geometry" />
        </mxCell>
        <mxCell id="ZuQJrdhla16gMjKC7xCY-184" value="" style="endArrow=none;html=1;rounded=0;entryX=0;entryY=0;entryDx=0;entryDy=0;exitX=0.75;exitY=1;exitDx=0;exitDy=0;" parent="1" source="ZuQJrdhla16gMjKC7xCY-174" target="ZuQJrdhla16gMjKC7xCY-183" edge="1">
          <mxGeometry relative="1" as="geometry">
            <mxPoint x="745" y="840" as="sourcePoint" />
            <mxPoint x="455" y="740" as="targetPoint" />
          </mxGeometry>
        </mxCell>
        <mxCell id="ZuQJrdhla16gMjKC7xCY-185" value="" style="endArrow=none;html=1;rounded=0;entryX=0.5;entryY=0;entryDx=0;entryDy=0;exitX=0.5;exitY=1;exitDx=0;exitDy=0;" parent="1" source="ZuQJrdhla16gMjKC7xCY-174" target="ZuQJrdhla16gMjKC7xCY-182" edge="1">
          <mxGeometry relative="1" as="geometry">
            <mxPoint x="525" y="880" as="sourcePoint" />
            <mxPoint x="235" y="800" as="targetPoint" />
          </mxGeometry>
        </mxCell>
        <mxCell id="ZuQJrdhla16gMjKC7xCY-186" value="&lt;b&gt;Assign&lt;/b&gt;" style="shape=rhombus;perimeter=rhombusPerimeter;whiteSpace=wrap;html=1;align=center;" parent="1" vertex="1">
          <mxGeometry x="340" y="630" width="120" height="60" as="geometry" />
        </mxCell>
        <mxCell id="ZuQJrdhla16gMjKC7xCY-187" value="" style="endArrow=none;html=1;rounded=0;entryX=0;entryY=0.5;entryDx=0;entryDy=0;exitX=1;exitY=0.5;exitDx=0;exitDy=0;" parent="1" source="ZuQJrdhla16gMjKC7xCY-186" target="ZuQJrdhla16gMjKC7xCY-174" edge="1">
          <mxGeometry relative="1" as="geometry">
            <mxPoint x="390" y="570" as="sourcePoint" />
            <mxPoint x="550" y="570" as="targetPoint" />
          </mxGeometry>
        </mxCell>
        <mxCell id="ZuQJrdhla16gMjKC7xCY-188" value="&lt;b&gt;m&lt;/b&gt;" style="resizable=0;html=1;whiteSpace=wrap;align=right;verticalAlign=bottom;" parent="ZuQJrdhla16gMjKC7xCY-187" connectable="0" vertex="1">
          <mxGeometry x="1" relative="1" as="geometry">
            <mxPoint x="-10" as="offset" />
          </mxGeometry>
        </mxCell>
        <mxCell id="ZuQJrdhla16gMjKC7xCY-189" value="" style="endArrow=none;html=1;rounded=0;exitX=1;exitY=0.5;exitDx=0;exitDy=0;entryX=0;entryY=0.5;entryDx=0;entryDy=0;" parent="1" source="ZuQJrdhla16gMjKC7xCY-156" target="ZuQJrdhla16gMjKC7xCY-186" edge="1">
          <mxGeometry relative="1" as="geometry">
            <mxPoint x="530" y="570" as="sourcePoint" />
            <mxPoint x="690" y="570" as="targetPoint" />
          </mxGeometry>
        </mxCell>
        <mxCell id="ZuQJrdhla16gMjKC7xCY-193" value="&lt;b&gt;price&lt;br&gt;per passenger&lt;/b&gt;" style="ellipse;whiteSpace=wrap;html=1;align=center;" parent="1" vertex="1">
          <mxGeometry x="350" y="740" width="100" height="40" as="geometry" />
        </mxCell>
        <mxCell id="ZuQJrdhla16gMjKC7xCY-194" value="&lt;b&gt;arrival date time&lt;/b&gt;" style="ellipse;whiteSpace=wrap;html=1;align=center;" parent="1" vertex="1">
          <mxGeometry x="265" y="560" width="100" height="40" as="geometry" />
        </mxCell>
        <mxCell id="ZuQJrdhla16gMjKC7xCY-195" value="&lt;b&gt;departure&lt;br&gt;date time&lt;/b&gt;" style="ellipse;whiteSpace=wrap;html=1;align=center;" parent="1" vertex="1">
          <mxGeometry x="460" y="700" width="100" height="40" as="geometry" />
        </mxCell>
        <mxCell id="ZuQJrdhla16gMjKC7xCY-196" value="&lt;b&gt;number&lt;br&gt;of passengers&lt;/b&gt;" style="ellipse;whiteSpace=wrap;html=1;align=center;" parent="1" vertex="1">
          <mxGeometry x="240" y="710" width="100" height="40" as="geometry" />
        </mxCell>
        <mxCell id="ZuQJrdhla16gMjKC7xCY-198" value="&lt;b&gt;travel duration&lt;/b&gt;" style="ellipse;whiteSpace=wrap;html=1;align=center;" parent="1" vertex="1">
          <mxGeometry x="450" y="560" width="100" height="40" as="geometry" />
        </mxCell>
        <mxCell id="ZuQJrdhla16gMjKC7xCY-203" value="" style="endArrow=none;html=1;rounded=0;exitX=0.5;exitY=1;exitDx=0;exitDy=0;entryX=0;entryY=0;entryDx=0;entryDy=0;" parent="1" source="ZuQJrdhla16gMjKC7xCY-194" target="ZuQJrdhla16gMjKC7xCY-186" edge="1">
          <mxGeometry relative="1" as="geometry">
            <mxPoint x="370" y="610" as="sourcePoint" />
            <mxPoint x="530" y="610" as="targetPoint" />
          </mxGeometry>
        </mxCell>
        <mxCell id="ZuQJrdhla16gMjKC7xCY-204" value="" style="endArrow=none;html=1;rounded=0;exitX=0.5;exitY=0;exitDx=0;exitDy=0;entryX=0;entryY=1;entryDx=0;entryDy=0;" parent="1" source="ZuQJrdhla16gMjKC7xCY-196" target="ZuQJrdhla16gMjKC7xCY-186" edge="1">
          <mxGeometry relative="1" as="geometry">
            <mxPoint x="370" y="610" as="sourcePoint" />
            <mxPoint x="530" y="610" as="targetPoint" />
          </mxGeometry>
        </mxCell>
        <mxCell id="ZuQJrdhla16gMjKC7xCY-205" value="" style="endArrow=none;html=1;rounded=0;entryX=0.5;entryY=0;entryDx=0;entryDy=0;exitX=0.5;exitY=1;exitDx=0;exitDy=0;" parent="1" source="ZuQJrdhla16gMjKC7xCY-186" target="ZuQJrdhla16gMjKC7xCY-193" edge="1">
          <mxGeometry relative="1" as="geometry">
            <mxPoint x="370" y="610" as="sourcePoint" />
            <mxPoint x="530" y="610" as="targetPoint" />
          </mxGeometry>
        </mxCell>
        <mxCell id="ZuQJrdhla16gMjKC7xCY-206" value="" style="endArrow=none;html=1;rounded=0;entryX=0.5;entryY=0;entryDx=0;entryDy=0;exitX=1;exitY=1;exitDx=0;exitDy=0;" parent="1" source="ZuQJrdhla16gMjKC7xCY-186" target="ZuQJrdhla16gMjKC7xCY-195" edge="1">
          <mxGeometry relative="1" as="geometry">
            <mxPoint x="370" y="610" as="sourcePoint" />
            <mxPoint x="530" y="610" as="targetPoint" />
          </mxGeometry>
        </mxCell>
        <mxCell id="ZuQJrdhla16gMjKC7xCY-207" value="" style="endArrow=none;html=1;rounded=0;entryX=0.5;entryY=1;entryDx=0;entryDy=0;" parent="1" source="ZuQJrdhla16gMjKC7xCY-186" target="ZuQJrdhla16gMjKC7xCY-198" edge="1">
          <mxGeometry relative="1" as="geometry">
            <mxPoint x="370" y="610" as="sourcePoint" />
            <mxPoint x="530" y="610" as="targetPoint" />
          </mxGeometry>
        </mxCell>
        <mxCell id="ZuQJrdhla16gMjKC7xCY-209" value="&lt;b&gt;Crew&lt;/b&gt;" style="shape=ext;margin=3;double=1;whiteSpace=wrap;html=1;align=center;" parent="1" vertex="1">
          <mxGeometry x="-380" y="640" width="100" height="40" as="geometry" />
        </mxCell>
        <mxCell id="ZuQJrdhla16gMjKC7xCY-211" value="&lt;b&gt;assistant&lt;br&gt;pilot&lt;/b&gt;" style="ellipse;whiteSpace=wrap;html=1;align=center;" parent="1" vertex="1">
          <mxGeometry x="-440" y="740" width="100" height="40" as="geometry" />
        </mxCell>
        <mxCell id="ZuQJrdhla16gMjKC7xCY-212" value="&lt;b&gt;major&lt;br&gt;pilot&lt;/b&gt;" style="ellipse;whiteSpace=wrap;html=1;align=center;" parent="1" vertex="1">
          <mxGeometry x="-510" y="700" width="100" height="40" as="geometry" />
        </mxCell>
        <mxCell id="ZuQJrdhla16gMjKC7xCY-213" value="&lt;b&gt;Has&lt;/b&gt;" style="shape=rhombus;double=1;perimeter=rhombusPerimeter;whiteSpace=wrap;html=1;align=center;" parent="1" vertex="1">
          <mxGeometry x="-180" y="630" width="120" height="60" as="geometry" />
        </mxCell>
        <mxCell id="ZuQJrdhla16gMjKC7xCY-214" value="&lt;b&gt;two&lt;br&gt;hostesses&lt;/b&gt;" style="ellipse;shape=doubleEllipse;margin=3;whiteSpace=wrap;html=1;align=center;" parent="1" vertex="1">
          <mxGeometry x="-340" y="710" width="100" height="40" as="geometry" />
        </mxCell>
        <mxCell id="ZuQJrdhla16gMjKC7xCY-216" value="" style="endArrow=none;html=1;rounded=0;exitX=0;exitY=0.75;exitDx=0;exitDy=0;entryX=1;entryY=0;entryDx=0;entryDy=0;" parent="1" source="ZuQJrdhla16gMjKC7xCY-209" target="ZuQJrdhla16gMjKC7xCY-212" edge="1">
          <mxGeometry relative="1" as="geometry">
            <mxPoint x="-80" y="640" as="sourcePoint" />
            <mxPoint x="80" y="640" as="targetPoint" />
          </mxGeometry>
        </mxCell>
        <mxCell id="ZuQJrdhla16gMjKC7xCY-217" value="" style="endArrow=none;html=1;rounded=0;exitX=0.25;exitY=1;exitDx=0;exitDy=0;entryX=0.5;entryY=0;entryDx=0;entryDy=0;" parent="1" source="ZuQJrdhla16gMjKC7xCY-209" target="ZuQJrdhla16gMjKC7xCY-211" edge="1">
          <mxGeometry relative="1" as="geometry">
            <mxPoint x="-80" y="640" as="sourcePoint" />
            <mxPoint x="80" y="640" as="targetPoint" />
          </mxGeometry>
        </mxCell>
        <mxCell id="ZuQJrdhla16gMjKC7xCY-218" value="" style="endArrow=none;html=1;rounded=0;exitX=0.75;exitY=1;exitDx=0;exitDy=0;entryX=0.5;entryY=0;entryDx=0;entryDy=0;" parent="1" source="ZuQJrdhla16gMjKC7xCY-209" target="ZuQJrdhla16gMjKC7xCY-214" edge="1">
          <mxGeometry relative="1" as="geometry">
            <mxPoint x="-80" y="640" as="sourcePoint" />
            <mxPoint x="80" y="640" as="targetPoint" />
          </mxGeometry>
        </mxCell>
        <mxCell id="ZuQJrdhla16gMjKC7xCY-224" value="" style="shape=link;html=1;rounded=0;entryX=0;entryY=0.5;entryDx=0;entryDy=0;exitX=1;exitY=0.5;exitDx=0;exitDy=0;" parent="1" source="ZuQJrdhla16gMjKC7xCY-213" target="ZuQJrdhla16gMjKC7xCY-156" edge="1">
          <mxGeometry relative="1" as="geometry">
            <mxPoint x="-170" y="640" as="sourcePoint" />
            <mxPoint x="-10" y="640" as="targetPoint" />
          </mxGeometry>
        </mxCell>
        <mxCell id="ZuQJrdhla16gMjKC7xCY-226" value="" style="shape=link;html=1;rounded=0;entryX=1;entryY=0.5;entryDx=0;entryDy=0;exitX=0;exitY=0.5;exitDx=0;exitDy=0;" parent="1" source="ZuQJrdhla16gMjKC7xCY-213" target="ZuQJrdhla16gMjKC7xCY-209" edge="1">
          <mxGeometry relative="1" as="geometry">
            <mxPoint x="-70" y="600" as="sourcePoint" />
            <mxPoint x="-280" y="590" as="targetPoint" />
          </mxGeometry>
        </mxCell>
        <mxCell id="rkUKMQ61AvtSGf5g1PPa-8" value="&lt;b&gt;m&lt;/b&gt;" style="edgeLabel;html=1;align=center;verticalAlign=middle;resizable=0;points=[];" vertex="1" connectable="0" parent="ZuQJrdhla16gMjKC7xCY-226">
          <mxGeometry x="0.4495" y="-13" relative="1" as="geometry">
            <mxPoint x="-17" y="-2" as="offset" />
          </mxGeometry>
        </mxCell>
        <mxCell id="ZuQJrdhla16gMjKC7xCY-228" value="" style="shape=link;html=1;rounded=0;exitX=0;exitY=0.5;exitDx=0;exitDy=0;entryX=1;entryY=0.5;entryDx=0;entryDy=0;" parent="1" source="ZuQJrdhla16gMjKC7xCY-173" target="ZuQJrdhla16gMjKC7xCY-117" edge="1">
          <mxGeometry relative="1" as="geometry">
            <mxPoint x="510" y="380" as="sourcePoint" />
            <mxPoint x="670" y="380" as="targetPoint" />
          </mxGeometry>
        </mxCell>
        <mxCell id="ZuQJrdhla16gMjKC7xCY-229" value="&lt;b&gt;1&lt;/b&gt;" style="resizable=0;html=1;whiteSpace=wrap;align=right;verticalAlign=bottom;" parent="ZuQJrdhla16gMjKC7xCY-228" connectable="0" vertex="1">
          <mxGeometry x="1" relative="1" as="geometry">
            <mxPoint x="30" y="-7" as="offset" />
          </mxGeometry>
        </mxCell>
        <mxCell id="ZuQJrdhla16gMjKC7xCY-230" value="" style="shape=link;html=1;rounded=0;entryX=0;entryY=0.5;entryDx=0;entryDy=0;exitX=1;exitY=0.5;exitDx=0;exitDy=0;" parent="1" source="ZuQJrdhla16gMjKC7xCY-173" target="ZuQJrdhla16gMjKC7xCY-130" edge="1">
          <mxGeometry relative="1" as="geometry">
            <mxPoint x="395" y="440" as="sourcePoint" />
            <mxPoint x="585" y="450" as="targetPoint" />
          </mxGeometry>
        </mxCell>
        <mxCell id="ZuQJrdhla16gMjKC7xCY-231" value="&lt;blockquote style=&quot;margin: 0 0 0 40px; border: none; padding: 0px;&quot;&gt;&lt;b&gt;m&lt;/b&gt;&lt;/blockquote&gt;" style="resizable=0;html=1;whiteSpace=wrap;align=right;verticalAlign=bottom;" parent="ZuQJrdhla16gMjKC7xCY-230" connectable="0" vertex="1">
          <mxGeometry x="1" relative="1" as="geometry">
            <mxPoint x="-5" y="-7" as="offset" />
          </mxGeometry>
        </mxCell>
        <mxCell id="ZuQJrdhla16gMjKC7xCY-232" value="&lt;b&gt;Transaction&lt;/b&gt;" style="shape=ext;margin=3;double=1;whiteSpace=wrap;html=1;align=center;" parent="1" vertex="1">
          <mxGeometry x="-380" y="290" width="100" height="40" as="geometry" />
        </mxCell>
        <mxCell id="ZuQJrdhla16gMjKC7xCY-234" value="&lt;b&gt;description&lt;/b&gt;" style="ellipse;whiteSpace=wrap;html=1;align=center;" parent="1" vertex="1">
          <mxGeometry x="-360" y="200" width="100" height="40" as="geometry" />
        </mxCell>
        <mxCell id="ZuQJrdhla16gMjKC7xCY-235" value="&lt;b&gt;date&lt;/b&gt;" style="ellipse;whiteSpace=wrap;html=1;align=center;" parent="1" vertex="1">
          <mxGeometry x="-490" y="210" width="100" height="40" as="geometry" />
        </mxCell>
        <mxCell id="ZuQJrdhla16gMjKC7xCY-236" value="&lt;b&gt;amount&lt;br&gt;of money&amp;nbsp;&lt;/b&gt;" style="ellipse;whiteSpace=wrap;html=1;align=center;" parent="1" vertex="1">
          <mxGeometry x="-550" y="250" width="100" height="40" as="geometry" />
        </mxCell>
        <mxCell id="ZuQJrdhla16gMjKC7xCY-237" value="" style="endArrow=none;html=1;rounded=0;entryX=0.5;entryY=1;entryDx=0;entryDy=0;exitX=0.75;exitY=0;exitDx=0;exitDy=0;" parent="1" source="ZuQJrdhla16gMjKC7xCY-232" target="ZuQJrdhla16gMjKC7xCY-234" edge="1">
          <mxGeometry relative="1" as="geometry">
            <mxPoint x="-290" y="250" as="sourcePoint" />
            <mxPoint x="-140" y="550" as="targetPoint" />
          </mxGeometry>
        </mxCell>
        <mxCell id="ZuQJrdhla16gMjKC7xCY-238" value="" style="endArrow=none;html=1;rounded=0;entryX=1;entryY=1;entryDx=0;entryDy=0;exitX=0;exitY=0.5;exitDx=0;exitDy=0;" parent="1" source="ZuQJrdhla16gMjKC7xCY-232" target="ZuQJrdhla16gMjKC7xCY-236" edge="1">
          <mxGeometry relative="1" as="geometry">
            <mxPoint x="-420" y="300" as="sourcePoint" />
            <mxPoint x="-140" y="550" as="targetPoint" />
            <Array as="points" />
          </mxGeometry>
        </mxCell>
        <mxCell id="ZuQJrdhla16gMjKC7xCY-239" value="" style="endArrow=none;html=1;rounded=0;entryX=0.5;entryY=1;entryDx=0;entryDy=0;exitX=0.25;exitY=0;exitDx=0;exitDy=0;" parent="1" source="ZuQJrdhla16gMjKC7xCY-232" target="ZuQJrdhla16gMjKC7xCY-235" edge="1">
          <mxGeometry relative="1" as="geometry">
            <mxPoint x="-370" y="260" as="sourcePoint" />
            <mxPoint x="-140" y="550" as="targetPoint" />
          </mxGeometry>
        </mxCell>
        <mxCell id="ZuQJrdhla16gMjKC7xCY-240" value="" style="endArrow=none;html=1;rounded=0;exitX=0.5;exitY=1;exitDx=0;exitDy=0;entryX=0.5;entryY=0;entryDx=0;entryDy=0;" parent="1" source="rkUKMQ61AvtSGf5g1PPa-4" target="ZuQJrdhla16gMjKC7xCY-232" edge="1">
          <mxGeometry relative="1" as="geometry">
            <mxPoint x="-380" y="200" as="sourcePoint" />
            <mxPoint x="-340" y="240" as="targetPoint" />
          </mxGeometry>
        </mxCell>
        <mxCell id="ZuQJrdhla16gMjKC7xCY-241" value="&lt;b&gt;Keeps&lt;/b&gt;" style="shape=rhombus;double=1;perimeter=rhombusPerimeter;whiteSpace=wrap;html=1;align=center;" parent="1" vertex="1">
          <mxGeometry x="-180" y="280" width="120" height="60" as="geometry" />
        </mxCell>
        <mxCell id="ZuQJrdhla16gMjKC7xCY-244" value="" style="endArrow=none;html=1;rounded=0;exitX=0;exitY=0.5;exitDx=0;exitDy=0;entryX=1;entryY=0.5;entryDx=0;entryDy=0;" parent="1" target="ZuQJrdhla16gMjKC7xCY-241" edge="1" source="ZuQJrdhla16gMjKC7xCY-117">
          <mxGeometry relative="1" as="geometry">
            <mxPoint x="150" y="430" as="sourcePoint" />
            <mxPoint x="-50" y="310" as="targetPoint" />
          </mxGeometry>
        </mxCell>
        <mxCell id="ZuQJrdhla16gMjKC7xCY-245" value="" style="shape=link;html=1;rounded=0;exitX=0;exitY=0.5;exitDx=0;exitDy=0;entryX=1;entryY=0.5;entryDx=0;entryDy=0;" parent="1" target="ZuQJrdhla16gMjKC7xCY-232" edge="1" source="ZuQJrdhla16gMjKC7xCY-241">
          <mxGeometry relative="1" as="geometry">
            <mxPoint x="-440" y="530" as="sourcePoint" />
            <mxPoint x="-270" y="310" as="targetPoint" />
          </mxGeometry>
        </mxCell>
        <mxCell id="rkUKMQ61AvtSGf5g1PPa-2" style="edgeStyle=orthogonalEdgeStyle;rounded=0;orthogonalLoop=1;jettySize=auto;html=1;exitX=0.5;exitY=1;exitDx=0;exitDy=0;" edge="1" parent="1" source="ZuQJrdhla16gMjKC7xCY-232" target="ZuQJrdhla16gMjKC7xCY-232">
          <mxGeometry relative="1" as="geometry" />
        </mxCell>
        <mxCell id="rkUKMQ61AvtSGf5g1PPa-4" value="&lt;span style=&quot;border-bottom: 1px dotted&quot;&gt;&lt;b&gt;identification number&lt;/b&gt;&lt;/span&gt;" style="ellipse;whiteSpace=wrap;html=1;align=center;" vertex="1" parent="1">
          <mxGeometry x="-440" y="170" width="100" height="40" as="geometry" />
        </mxCell>
        <mxCell id="rkUKMQ61AvtSGf5g1PPa-5" value="&lt;b&gt;m&lt;/b&gt;" style="text;html=1;align=center;verticalAlign=middle;resizable=0;points=[];autosize=1;strokeColor=none;fillColor=none;" vertex="1" parent="1">
          <mxGeometry x="130" y="630" width="30" height="30" as="geometry" />
        </mxCell>
        <mxCell id="rkUKMQ61AvtSGf5g1PPa-6" value="&lt;b&gt;m&lt;/b&gt;" style="text;html=1;align=center;verticalAlign=middle;resizable=0;points=[];autosize=1;strokeColor=none;fillColor=none;" vertex="1" parent="1">
          <mxGeometry x="50" y="610" width="30" height="30" as="geometry" />
        </mxCell>
        <mxCell id="rkUKMQ61AvtSGf5g1PPa-7" value="&lt;b&gt;1&lt;/b&gt;" style="text;html=1;align=center;verticalAlign=middle;resizable=0;points=[];autosize=1;strokeColor=none;fillColor=none;" vertex="1" parent="1">
          <mxGeometry x="-5" y="628" width="30" height="30" as="geometry" />
        </mxCell>
        <mxCell id="rkUKMQ61AvtSGf5g1PPa-9" value="&lt;b&gt;1&lt;/b&gt;" style="text;html=1;align=center;verticalAlign=middle;resizable=0;points=[];autosize=1;strokeColor=none;fillColor=none;" vertex="1" parent="1">
          <mxGeometry x="5" y="288" width="30" height="30" as="geometry" />
        </mxCell>
        <mxCell id="rkUKMQ61AvtSGf5g1PPa-10" value="&lt;b&gt;m&lt;/b&gt;" style="text;html=1;align=center;verticalAlign=middle;resizable=0;points=[];autosize=1;strokeColor=none;fillColor=none;" vertex="1" parent="1">
          <mxGeometry x="-280" y="280" width="30" height="30" as="geometry" />
        </mxCell>
      </root>
    </mxGraphModel>
  </diagram>
</mxfile>
